<svg width="65" height="64" viewBox="0 0 65 64" fill="none" xmlns="http://www.w3.org/2000/svg">
<mask id="mask0_153_1000" style="mask-type:alpha" maskUnits="userSpaceOnUse" x="0" y="0" width="65" height="64">
<rect x="0.333374" width="64" height="64" fill="#D9D9D9"/>
</mask>
<g mask="url(#mask0_153_1000)">
<path d="M6.64136 54.8727V8.20605H31.4874V19.1034H58.0254V54.8727H6.64136ZM9.66669 51.8467H17.564V43.9494H9.66669V51.8467ZM9.66669 40.9241H17.564V33.0521H9.66669V40.9241ZM9.66669 30.0261H17.564V22.1287H9.66669V30.0261ZM9.66669 19.1034H17.564V11.2314H9.66669V19.1034ZM20.59 51.8467H28.4614V43.9494H20.59V51.8467ZM20.59 40.9241H28.4614V33.0521H20.59V40.9241ZM20.59 30.0261H28.4614V22.1287H20.59V30.0261ZM20.59 19.1034H28.4614V11.2314H20.59V19.1034ZM31.4874 51.8467H55V22.1287H31.4874V30.0261H37.3334V33.0521H31.4874V40.9241H37.3334V43.9494H31.4874V51.8467ZM44.41 33.0521V30.0261H47.436V33.0521H44.41ZM44.41 43.9494V40.9241H47.436V43.9494H44.41Z" fill="#1FB43F"/>
</g>
</svg>
