<svg width="65" height="64" viewBox="0 0 65 64" fill="none" xmlns="http://www.w3.org/2000/svg">
<mask id="mask0_153_1012" style="mask-type:alpha" maskUnits="userSpaceOnUse" x="0" y="0" width="65" height="64">
<rect x="0.666748" width="64" height="64" fill="#D9D9D9"/>
</mask>
<g mask="url(#mask0_153_1012)">
<path d="M51.7387 54.667L35.4667 38.395L38.3694 35.4923L54.6407 51.7643L51.7387 54.667ZM13.39 54.667L10.4874 51.7643L29.6414 32.6103L21.5334 24.503L20.1027 25.9336L17.4767 23.2823V28.5643L16.0054 30.0103L8.43604 22.441L9.90804 20.9696H15.2307L12.39 18.1543L19.4567 11.0616C20.1265 10.4087 20.8503 9.95763 21.628 9.7083C22.4058 9.45852 23.2683 9.33363 24.2154 9.33363C25.1451 9.33363 26.0031 9.49697 26.7894 9.82363C27.576 10.1499 28.2958 10.6481 28.9487 11.3183L22.9434 17.2976L25.9894 20.3436L24.518 21.7903L32.5027 29.749L40.4567 21.795C40.0496 21.183 39.7418 20.5079 39.5334 19.7696C39.3249 19.031 39.2207 18.231 39.2207 17.3696C39.2207 15.1679 40.0163 13.2712 41.6074 11.6796C43.1989 10.0885 45.0956 9.29297 47.2974 9.29297C47.8614 9.29297 48.3512 9.34252 48.7667 9.44163C49.1818 9.54075 49.5365 9.69275 49.8307 9.89764L44.446 15.257L49.3434 20.1543L54.728 14.795C54.916 15.1167 55.0707 15.5032 55.192 15.9543C55.3134 16.4054 55.374 16.913 55.374 17.477C55.374 19.6787 54.5785 21.5754 52.9874 23.167C51.3958 24.7585 49.4992 25.5543 47.2974 25.5543C46.4632 25.5543 45.7443 25.4859 45.1407 25.349C44.5376 25.2121 43.9658 24.9727 43.4254 24.631L13.39 54.667Z" fill="#1FB43F"/>
</g>
</svg>
