<svg width="196" height="47" viewBox="0 0 196 47" fill="none" xmlns="http://www.w3.org/2000/svg">
<path d="M24.936 1.63037C36.8458 1.63062 46.5005 11.2858 46.5005 23.1958C46.5004 35.1057 36.8457 44.761 24.936 44.7612C13.0261 44.7612 3.37073 35.1058 3.37061 23.1958C3.37061 11.2857 13.026 1.63037 24.936 1.63037Z" stroke="white" stroke-width="3"/>
<path d="M24.9341 9.1084C32.7127 9.1084 39.019 15.4146 39.019 23.1934C39.0188 30.9719 32.7126 37.2773 24.9341 37.2773C17.1558 37.2771 10.8503 30.9718 10.8501 23.1934C10.8501 15.4148 17.1557 9.10864 24.9341 9.1084Z" stroke="white" stroke-width="3"/>
<path d="M21.1002 26.0981V14.1781H29.0202V16.0981H23.2762V19.1541H28.7002V21.0741H23.2762V24.1781H29.0202V26.0981H21.1002Z" fill="white"/>
<path d="M11.2207 23.501C19.0383 25.0106 22.1541 28.3309 24.3116 37.2154" stroke="white" stroke-width="2"/>
<path d="M0 20.7003L2.49351 20.7005L2.18182 25.064L0 20.7003Z" fill="white"/>
<path d="M9.104 36.2964L10.9741 39.4133H14.7144L12.8443 36.2964H9.104Z" fill="white"/>
<path d="M35.7793 8.23096L37.6494 11.3479H41.3897L39.5196 8.23096H35.7793Z" fill="white"/>
<path d="M33.0398 26.312C27.4665 27.1688 25.2946 29.0304 24.3125 32.8575V33.1692L25.5593 32.2342L27.7411 30.6757L26.4943 34.1043C30.0697 32.6607 31.583 31.0665 33.0398 26.312Z" fill="white" stroke="white"/>
<path d="M31.545 19.4574C34.3502 19.1457 34.9736 14.782 31.2333 10.73L37.1554 16.0287C36.5377 18.3487 33.7269 21.0158 33.1035 20.3924C32.4801 19.769 31.545 20.3924 31.545 20.3924V19.4574Z" fill="white"/>
<path d="M22.1944 19.413C20.7646 18.3573 19.9461 18.019 18.4541 17.8989C19.5445 20.9817 20.3274 22.0136 22.0757 22.426L22.1944 19.413Z" fill="white"/>
<path d="M22.1944 22.5743L22.0757 22.426M22.0757 22.426C20.3274 22.0136 19.5445 20.9817 18.4541 17.8989C19.9461 18.019 20.7646 18.3573 22.1944 19.413L22.0757 22.426ZM31.2333 10.73C34.9736 14.782 34.3502 19.1457 31.545 19.4574V20.3924C31.545 20.3924 32.4801 19.769 33.1035 20.3924C33.7269 21.0158 36.5377 18.3487 37.1554 16.0287L31.2333 10.73Z" stroke="white"/>
<path d="M59.7285 22.1304V4.25037H71.6085V7.13037H62.9925V11.7144H71.1285V14.5944H62.9925V19.2504H71.6085V22.1304H59.7285ZM81.9459 22.4184C80.6499 22.4184 79.4819 22.1224 78.4419 21.5304C77.4179 20.9224 76.6099 20.1064 76.0179 19.0824C75.4259 18.0424 75.1299 16.8744 75.1299 15.5784C75.1299 14.2824 75.4259 13.1224 76.0179 12.0984C76.6099 11.0744 77.4179 10.2664 78.4419 9.67437C79.4819 9.08237 80.6499 8.78637 81.9459 8.78637C82.8739 8.78637 83.7379 8.95437 84.5379 9.29037C85.3379 9.61037 86.0259 10.0584 86.6019 10.6344C87.1939 11.1944 87.6179 11.8664 87.8739 12.6504L85.1139 13.8504C84.8739 13.1944 84.4659 12.6664 83.8899 12.2664C83.3299 11.8664 82.6819 11.6664 81.9459 11.6664C81.2579 11.6664 80.6419 11.8344 80.0979 12.1704C79.5699 12.5064 79.1539 12.9704 78.8499 13.5624C78.5459 14.1544 78.3939 14.8344 78.3939 15.6024C78.3939 16.3704 78.5459 17.0504 78.8499 17.6424C79.1539 18.2344 79.5699 18.6984 80.0979 19.0344C80.6419 19.3704 81.2579 19.5384 81.9459 19.5384C82.6979 19.5384 83.3539 19.3384 83.9139 18.9384C84.4739 18.5384 84.8739 18.0024 85.1139 17.3304L87.8739 18.5784C87.6179 19.3144 87.2019 19.9784 86.6259 20.5704C86.0499 21.1464 85.3619 21.6024 84.5619 21.9384C83.7619 22.2584 82.8899 22.4184 81.9459 22.4184ZM98.5635 22.4184C97.2835 22.4184 96.1155 22.1224 95.0595 21.5304C94.0195 20.9384 93.1875 20.1304 92.5635 19.1064C91.9555 18.0824 91.6515 16.9144 91.6515 15.6024C91.6515 14.2904 91.9555 13.1224 92.5635 12.0984C93.1875 11.0744 94.0195 10.2664 95.0595 9.67437C96.0995 9.08237 97.2675 8.78637 98.5635 8.78637C99.8435 8.78637 101.003 9.08237 102.043 9.67437C103.083 10.2664 103.907 11.0744 104.515 12.0984C105.139 13.1064 105.451 14.2744 105.451 15.6024C105.451 16.9144 105.139 18.0824 104.515 19.1064C103.891 20.1304 103.059 20.9384 102.019 21.5304C100.979 22.1224 99.8275 22.4184 98.5635 22.4184ZM98.5635 19.5384C99.2675 19.5384 99.8835 19.3704 100.411 19.0344C100.955 18.6984 101.379 18.2344 101.683 17.6424C102.003 17.0344 102.163 16.3544 102.163 15.6024C102.163 14.8344 102.003 14.1624 101.683 13.5864C101.379 12.9944 100.955 12.5304 100.411 12.1944C99.8835 11.8424 99.2675 11.6664 98.5635 11.6664C97.8435 11.6664 97.2115 11.8424 96.6675 12.1944C96.1235 12.5304 95.6915 12.9944 95.3715 13.5864C95.0675 14.1624 94.9155 14.8344 94.9155 15.6024C94.9155 16.3544 95.0675 17.0344 95.3715 17.6424C95.6915 18.2344 96.1235 18.6984 96.6675 19.0344C97.2115 19.3704 97.8435 19.5384 98.5635 19.5384ZM116.205 22.1304V4.25037H119.469V12.0504H127.077V4.25037H130.365V22.1304H127.077V14.9304H119.469V22.1304H116.205ZM137.047 27.4104C136.695 27.4104 136.351 27.3784 136.015 27.3144C135.679 27.2664 135.375 27.1704 135.103 27.0264V24.4104C135.311 24.4584 135.559 24.5064 135.847 24.5544C136.151 24.6024 136.431 24.6264 136.687 24.6264C137.407 24.6264 137.927 24.4584 138.247 24.1224C138.583 23.8024 138.879 23.3704 139.135 22.8264L139.999 20.8104L139.951 23.4504L134.263 9.07437H137.647L141.631 19.6824H140.431L144.391 9.07437H147.799L142.111 23.4504C141.775 24.2824 141.367 24.9944 140.887 25.5864C140.407 26.1784 139.847 26.6264 139.207 26.9304C138.583 27.2504 137.863 27.4104 137.047 27.4104ZM158.573 22.4184C157.629 22.4184 156.757 22.2344 155.957 21.8664C155.173 21.4824 154.549 20.9384 154.085 20.2344L154.397 19.6104V22.1304H151.445V3.96237H154.589V11.6664L154.109 11.0184C154.557 10.3144 155.165 9.77037 155.933 9.38637C156.701 8.98637 157.589 8.78637 158.597 8.78637C159.829 8.78637 160.941 9.09037 161.933 9.69837C162.925 10.3064 163.709 11.1224 164.285 12.1464C164.877 13.1704 165.173 14.3224 165.173 15.6024C165.173 16.8664 164.885 18.0184 164.309 19.0584C163.733 20.0984 162.949 20.9224 161.957 21.5304C160.965 22.1224 159.837 22.4184 158.573 22.4184ZM158.213 19.5384C158.933 19.5384 159.573 19.3704 160.133 19.0344C160.693 18.6984 161.125 18.2344 161.429 17.6424C161.749 17.0504 161.909 16.3704 161.909 15.6024C161.909 14.8344 161.749 14.1624 161.429 13.5864C161.125 12.9944 160.693 12.5304 160.133 12.1944C159.573 11.8424 158.933 11.6664 158.213 11.6664C157.525 11.6664 156.901 11.8344 156.341 12.1704C155.797 12.5064 155.365 12.9784 155.045 13.5864C154.741 14.1784 154.589 14.8504 154.589 15.6024C154.589 16.3704 154.741 17.0504 155.045 17.6424C155.365 18.2344 155.797 18.6984 156.341 19.0344C156.901 19.3704 157.525 19.5384 158.213 19.5384ZM175.682 22.4184C174.338 22.4184 173.162 22.1144 172.154 21.5064C171.146 20.8984 170.362 20.0744 169.802 19.0344C169.242 17.9944 168.962 16.8424 168.962 15.5784C168.962 14.2664 169.242 13.1064 169.802 12.0984C170.378 11.0744 171.154 10.2664 172.13 9.67437C173.122 9.08237 174.226 8.78637 175.442 8.78637C176.466 8.78637 177.362 8.95437 178.13 9.29037C178.914 9.62637 179.578 10.0904 180.122 10.6824C180.666 11.2744 181.082 11.9544 181.37 12.7224C181.658 13.4744 181.802 14.2904 181.802 15.1704C181.802 15.3944 181.786 15.6264 181.754 15.8664C181.738 16.1064 181.698 16.3144 181.634 16.4904H171.554V14.0904H179.858L178.37 15.2184C178.514 14.4824 178.474 13.8264 178.25 13.2504C178.042 12.6744 177.69 12.2184 177.194 11.8824C176.714 11.5464 176.13 11.3784 175.442 11.3784C174.786 11.3784 174.202 11.5464 173.69 11.8824C173.178 12.2024 172.786 12.6824 172.514 13.3224C172.258 13.9464 172.162 14.7064 172.226 15.6024C172.162 16.4024 172.266 17.1144 172.538 17.7384C172.826 18.3464 173.242 18.8184 173.786 19.1544C174.346 19.4904 174.986 19.6584 175.706 19.6584C176.426 19.6584 177.034 19.5064 177.53 19.2024C178.042 18.8984 178.442 18.4904 178.73 17.9784L181.274 19.2264C181.018 19.8504 180.618 20.4024 180.074 20.8824C179.53 21.3624 178.882 21.7384 178.13 22.0104C177.394 22.2824 176.578 22.4184 175.682 22.4184Z" fill="white"/>
<path d="M62.0685 39.2744C61.5005 39.2744 60.9845 39.1664 60.5205 38.9504C60.0565 38.7344 59.6645 38.4464 59.3445 38.0864C59.0245 37.7184 58.7965 37.3144 58.6605 36.8744L59.5245 36.5504C59.7325 37.1584 60.0565 37.6224 60.4965 37.9424C60.9365 38.2544 61.4605 38.4104 62.0685 38.4104C62.4525 38.4104 62.7885 38.3504 63.0765 38.2304C63.3725 38.1024 63.6005 37.9264 63.7605 37.7024C63.9205 37.4784 64.0005 37.2184 64.0005 36.9224C64.0005 36.4824 63.8805 36.1424 63.6405 35.9024C63.4005 35.6624 63.0565 35.4784 62.6085 35.3504L61.0005 34.8704C60.3685 34.6864 59.8805 34.3784 59.5365 33.9464C59.2005 33.5144 59.0325 33.0224 59.0325 32.4704C59.0325 31.9984 59.1485 31.5824 59.3805 31.2224C59.6125 30.8544 59.9285 30.5664 60.3285 30.3584C60.7365 30.1504 61.1965 30.0464 61.7085 30.0464C62.2445 30.0464 62.7245 30.1464 63.1485 30.3464C63.5805 30.5384 63.9445 30.7944 64.2405 31.1144C64.5365 31.4344 64.7485 31.7904 64.8765 32.1824L64.0365 32.5184C63.8445 31.9904 63.5445 31.5904 63.1365 31.3184C62.7365 31.0464 62.2645 30.9104 61.7205 30.9104C61.3765 30.9104 61.0725 30.9704 60.8085 31.0904C60.5525 31.2104 60.3525 31.3824 60.2085 31.6064C60.0645 31.8304 59.9925 32.0944 59.9925 32.3984C59.9925 32.7664 60.1085 33.0984 60.3405 33.3944C60.5725 33.6824 60.9285 33.8984 61.4085 34.0424L62.8245 34.4624C63.5285 34.6704 64.0605 34.9704 64.4205 35.3624C64.7805 35.7544 64.9605 36.2464 64.9605 36.8384C64.9605 37.3184 64.8365 37.7424 64.5885 38.1104C64.3485 38.4704 64.0085 38.7544 63.5685 38.9624C63.1365 39.1704 62.6365 39.2744 62.0685 39.2744ZM68.9623 39.2744C68.5143 39.2744 68.1063 39.1704 67.7383 38.9624C67.3703 38.7464 67.0783 38.4504 66.8623 38.0744C66.6543 37.6904 66.5503 37.2504 66.5503 36.7544V32.6984H67.4503V36.6464C67.4503 36.9904 67.5183 37.2944 67.6543 37.5584C67.7983 37.8144 67.9943 38.0144 68.2423 38.1584C68.4983 38.3024 68.7903 38.3744 69.1183 38.3744C69.4463 38.3744 69.7383 38.3024 69.9943 38.1584C70.2503 38.0064 70.4503 37.7944 70.5943 37.5224C70.7383 37.2424 70.8103 36.9104 70.8103 36.5264V32.6984H71.7103V39.1304H70.8103V37.8824L71.0143 37.9304C70.8623 38.3464 70.6023 38.6744 70.2343 38.9144C69.8663 39.1544 69.4423 39.2744 68.9623 39.2744ZM75.7932 39.2744C75.1772 39.2744 74.6372 39.1184 74.1732 38.8064C73.7092 38.4944 73.3732 38.0704 73.1652 37.5344L73.9212 37.1744C74.1052 37.5664 74.3612 37.8784 74.6892 38.1104C75.0252 38.3424 75.3932 38.4584 75.7932 38.4584C76.1772 38.4584 76.5012 38.3664 76.7652 38.1824C77.0292 37.9904 77.1612 37.7424 77.1612 37.4384C77.1612 37.2144 77.0972 37.0384 76.9692 36.9104C76.8412 36.7744 76.6932 36.6704 76.5252 36.5984C76.3572 36.5264 76.2092 36.4744 76.0812 36.4424L75.1572 36.1784C74.5652 36.0104 74.1372 35.7744 73.8732 35.4704C73.6092 35.1664 73.4772 34.8144 73.4772 34.4144C73.4772 34.0384 73.5732 33.7104 73.7652 33.4304C73.9572 33.1504 74.2172 32.9344 74.5452 32.7824C74.8732 32.6304 75.2372 32.5544 75.6372 32.5544C76.1812 32.5544 76.6732 32.6984 77.1132 32.9864C77.5612 33.2664 77.8772 33.6584 78.0612 34.1624L77.2932 34.5224C77.1332 34.1624 76.9012 33.8824 76.5972 33.6824C76.3012 33.4744 75.9692 33.3704 75.6012 33.3704C75.2412 33.3704 74.9532 33.4624 74.7372 33.6464C74.5212 33.8304 74.4132 34.0624 74.4132 34.3424C74.4132 34.5584 74.4692 34.7304 74.5812 34.8584C74.6932 34.9864 74.8212 35.0824 74.9652 35.1464C75.1172 35.2104 75.2492 35.2584 75.3612 35.2904L76.4292 35.6024C76.9492 35.7544 77.3532 35.9904 77.6412 36.3104C77.9372 36.6304 78.0852 37.0064 78.0852 37.4384C78.0852 37.7904 77.9852 38.1064 77.7852 38.3864C77.5932 38.6664 77.3252 38.8864 76.9812 39.0464C76.6372 39.1984 76.2412 39.2744 75.7932 39.2744ZM82.1267 39.2024C81.5507 39.2024 81.1067 39.0344 80.7947 38.6984C80.4827 38.3624 80.3267 37.8824 80.3267 37.2584V33.5984H79.1387V32.6984H79.4387C79.7107 32.6984 79.9267 32.6104 80.0867 32.4344C80.2467 32.2504 80.3267 32.0224 80.3267 31.7504V31.2104H81.2267V32.6984H82.6427V33.5984H81.2267V37.2584C81.2267 37.4744 81.2587 37.6664 81.3227 37.8344C81.3867 37.9944 81.4947 38.1224 81.6467 38.2184C81.8067 38.3144 82.0187 38.3624 82.2827 38.3624C82.3467 38.3624 82.4227 38.3584 82.5107 38.3504C82.5987 38.3424 82.6747 38.3344 82.7387 38.3264V39.1304C82.6427 39.1544 82.5347 39.1704 82.4147 39.1784C82.2947 39.1944 82.1987 39.2024 82.1267 39.2024ZM86.0618 39.2744C85.6538 39.2744 85.2898 39.1984 84.9698 39.0464C84.6498 38.8864 84.3978 38.6704 84.2138 38.3984C84.0298 38.1264 83.9378 37.8144 83.9378 37.4624C83.9378 37.1264 84.0098 36.8224 84.1538 36.5504C84.2978 36.2704 84.5218 36.0344 84.8258 35.8424C85.1298 35.6504 85.5178 35.5144 85.9898 35.4344L88.5098 35.0144V35.8304L86.2058 36.2144C85.7418 36.2944 85.4058 36.4424 85.1978 36.6584C84.9978 36.8744 84.8978 37.1304 84.8978 37.4264C84.8978 37.7144 85.0098 37.9584 85.2338 38.1584C85.4658 38.3584 85.7618 38.4584 86.1218 38.4584C86.5618 38.4584 86.9458 38.3664 87.2738 38.1824C87.6018 37.9904 87.8578 37.7344 88.0418 37.4144C88.2258 37.0944 88.3178 36.7384 88.3178 36.3464V34.7144C88.3178 34.3304 88.1778 34.0184 87.8978 33.7784C87.6178 33.5384 87.2538 33.4184 86.8058 33.4184C86.4138 33.4184 86.0698 33.5184 85.7738 33.7184C85.4778 33.9104 85.2578 34.1624 85.1138 34.4744L84.2978 34.0304C84.4178 33.7584 84.6058 33.5104 84.8618 33.2864C85.1258 33.0624 85.4258 32.8864 85.7618 32.7584C86.0978 32.6224 86.4458 32.5544 86.8058 32.5544C87.2778 32.5544 87.6938 32.6464 88.0538 32.8304C88.4218 33.0144 88.7058 33.2704 88.9058 33.5984C89.1138 33.9184 89.2178 34.2904 89.2178 34.7144V39.1304H88.3178V37.8464L88.4498 37.9784C88.3378 38.2184 88.1618 38.4384 87.9218 38.6384C87.6898 38.8304 87.4138 38.9864 87.0938 39.1064C86.7818 39.2184 86.4378 39.2744 86.0618 39.2744ZM91.069 39.1304V32.6984H91.969V39.1304H91.069ZM91.069 31.5104V30.1904H91.969V31.5104H91.069ZM93.8112 39.1304V32.6984H94.7112V33.9464L94.5072 33.8984C94.6672 33.4824 94.9272 33.1544 95.2872 32.9144C95.6552 32.6744 96.0792 32.5544 96.5592 32.5544C97.0152 32.5544 97.4232 32.6584 97.7832 32.8664C98.1512 33.0744 98.4392 33.3624 98.6472 33.7304C98.8632 34.0904 98.9712 34.4984 98.9712 34.9544V39.1304H98.0712V35.3024C98.0712 34.9104 97.9992 34.5784 97.8552 34.3064C97.7192 34.0344 97.5232 33.8264 97.2672 33.6824C97.0192 33.5304 96.7312 33.4544 96.4032 33.4544C96.0752 33.4544 95.7832 33.5304 95.5272 33.6824C95.2712 33.8264 95.0712 34.0384 94.9272 34.3184C94.7832 34.5904 94.7112 34.9184 94.7112 35.3024V39.1304H93.8112ZM102.55 39.2744C102.142 39.2744 101.778 39.1984 101.458 39.0464C101.138 38.8864 100.886 38.6704 100.702 38.3984C100.518 38.1264 100.426 37.8144 100.426 37.4624C100.426 37.1264 100.498 36.8224 100.642 36.5504C100.786 36.2704 101.01 36.0344 101.314 35.8424C101.618 35.6504 102.006 35.5144 102.478 35.4344L104.998 35.0144V35.8304L102.694 36.2144C102.23 36.2944 101.894 36.4424 101.686 36.6584C101.486 36.8744 101.386 37.1304 101.386 37.4264C101.386 37.7144 101.498 37.9584 101.722 38.1584C101.954 38.3584 102.25 38.4584 102.61 38.4584C103.05 38.4584 103.434 38.3664 103.762 38.1824C104.09 37.9904 104.346 37.7344 104.53 37.4144C104.714 37.0944 104.806 36.7384 104.806 36.3464V34.7144C104.806 34.3304 104.666 34.0184 104.386 33.7784C104.106 33.5384 103.742 33.4184 103.294 33.4184C102.902 33.4184 102.558 33.5184 102.262 33.7184C101.966 33.9104 101.746 34.1624 101.602 34.4744L100.786 34.0304C100.906 33.7584 101.094 33.5104 101.35 33.2864C101.614 33.0624 101.914 32.8864 102.25 32.7584C102.586 32.6224 102.934 32.5544 103.294 32.5544C103.766 32.5544 104.182 32.6464 104.542 32.8304C104.91 33.0144 105.194 33.2704 105.394 33.5984C105.602 33.9184 105.706 34.2904 105.706 34.7144V39.1304H104.806V37.8464L104.938 37.9784C104.826 38.2184 104.65 38.4384 104.41 38.6384C104.178 38.8304 103.902 38.9864 103.582 39.1064C103.27 39.2184 102.926 39.2744 102.55 39.2744ZM110.809 39.2744C110.257 39.2744 109.757 39.1504 109.309 38.9024C108.869 38.6464 108.537 38.2864 108.313 37.8224L108.457 37.6904V39.1304H107.557V30.0464H108.457V34.1384L108.313 33.8864C108.569 33.4784 108.909 33.1544 109.333 32.9144C109.765 32.6744 110.257 32.5544 110.809 32.5544C111.417 32.5544 111.957 32.7024 112.429 32.9984C112.909 33.2864 113.285 33.6824 113.557 34.1864C113.837 34.6904 113.977 35.2664 113.977 35.9144C113.977 36.5544 113.837 37.1304 113.557 37.6424C113.285 38.1464 112.909 38.5464 112.429 38.8424C111.957 39.1304 111.417 39.2744 110.809 39.2744ZM110.761 38.3744C111.193 38.3744 111.577 38.2664 111.913 38.0504C112.257 37.8344 112.525 37.5424 112.717 37.1744C112.917 36.7984 113.017 36.3784 113.017 35.9144C113.017 35.4424 112.917 35.0224 112.717 34.6544C112.525 34.2864 112.257 33.9944 111.913 33.7784C111.577 33.5624 111.193 33.4544 110.761 33.4544C110.329 33.4544 109.937 33.5624 109.585 33.7784C109.241 33.9944 108.965 34.2904 108.757 34.6664C108.557 35.0344 108.457 35.4504 108.457 35.9144C108.457 36.3784 108.557 36.7984 108.757 37.1744C108.965 37.5424 109.241 37.8344 109.585 38.0504C109.937 38.2664 110.329 38.3744 110.761 38.3744ZM115.561 39.1304V30.0464H116.461V39.1304H115.561ZM121.231 39.2744C120.631 39.2744 120.087 39.1304 119.599 38.8424C119.119 38.5464 118.739 38.1424 118.459 37.6304C118.179 37.1184 118.039 36.5384 118.039 35.8904C118.039 35.2424 118.175 34.6704 118.447 34.1744C118.719 33.6704 119.087 33.2744 119.551 32.9864C120.023 32.6984 120.551 32.5544 121.135 32.5544C121.599 32.5544 122.011 32.6424 122.371 32.8184C122.739 32.9864 123.051 33.2184 123.307 33.5144C123.563 33.8024 123.759 34.1304 123.895 34.4984C124.031 34.8584 124.099 35.2304 124.099 35.6144C124.099 35.6944 124.095 35.7864 124.087 35.8904C124.079 35.9864 124.067 36.0864 124.051 36.1904H118.615V35.3504H123.535L123.103 35.7104C123.175 35.2704 123.123 34.8784 122.947 34.5344C122.779 34.1824 122.535 33.9064 122.215 33.7064C121.895 33.4984 121.535 33.3944 121.135 33.3944C120.735 33.3944 120.363 33.4984 120.019 33.7064C119.683 33.9144 119.419 34.2064 119.227 34.5824C119.035 34.9504 118.959 35.3904 118.999 35.9024C118.959 36.4144 119.039 36.8624 119.239 37.2464C119.447 37.6224 119.727 37.9144 120.079 38.1224C120.439 38.3304 120.823 38.4344 121.231 38.4344C121.703 38.4344 122.099 38.3224 122.419 38.0984C122.739 37.8744 122.999 37.5944 123.199 37.2584L123.967 37.6664C123.839 37.9544 123.643 38.2224 123.379 38.4704C123.115 38.7104 122.799 38.9064 122.431 39.0584C122.071 39.2024 121.671 39.2744 121.231 39.2744ZM127.857 39.1304V30.1904H130.929C131.513 30.1904 132.025 30.3064 132.465 30.5384C132.905 30.7624 133.245 31.0824 133.485 31.4984C133.733 31.9064 133.857 32.3824 133.857 32.9264C133.857 33.5584 133.689 34.0984 133.353 34.5464C133.025 34.9944 132.577 35.3104 132.009 35.4944L134.097 39.1304H132.969L130.785 35.2784L131.433 35.6504H128.817V39.1304H127.857ZM128.817 34.7504H130.977C131.361 34.7504 131.697 34.6784 131.985 34.5344C132.273 34.3824 132.497 34.1704 132.657 33.8984C132.817 33.6184 132.897 33.2904 132.897 32.9144C132.897 32.5384 132.817 32.2144 132.657 31.9424C132.497 31.6704 132.273 31.4624 131.985 31.3184C131.697 31.1664 131.361 31.0904 130.977 31.0904H128.817V34.7504ZM137.977 39.2744C137.377 39.2744 136.833 39.1304 136.345 38.8424C135.865 38.5464 135.485 38.1424 135.205 37.6304C134.925 37.1184 134.785 36.5384 134.785 35.8904C134.785 35.2424 134.921 34.6704 135.193 34.1744C135.465 33.6704 135.833 33.2744 136.297 32.9864C136.769 32.6984 137.297 32.5544 137.881 32.5544C138.345 32.5544 138.757 32.6424 139.117 32.8184C139.485 32.9864 139.797 33.2184 140.053 33.5144C140.309 33.8024 140.505 34.1304 140.641 34.4984C140.777 34.8584 140.845 35.2304 140.845 35.6144C140.845 35.6944 140.841 35.7864 140.833 35.8904C140.825 35.9864 140.813 36.0864 140.797 36.1904H135.361V35.3504H140.281L139.849 35.7104C139.921 35.2704 139.869 34.8784 139.693 34.5344C139.525 34.1824 139.281 33.9064 138.961 33.7064C138.641 33.4984 138.281 33.3944 137.881 33.3944C137.481 33.3944 137.109 33.4984 136.765 33.7064C136.429 33.9144 136.165 34.2064 135.973 34.5824C135.781 34.9504 135.705 35.3904 135.745 35.9024C135.705 36.4144 135.785 36.8624 135.985 37.2464C136.193 37.6224 136.473 37.9144 136.825 38.1224C137.185 38.3304 137.569 38.4344 137.977 38.4344C138.449 38.4344 138.845 38.3224 139.165 38.0984C139.485 37.8744 139.745 37.5944 139.945 37.2584L140.713 37.6664C140.585 37.9544 140.389 38.2224 140.125 38.4704C139.861 38.7104 139.545 38.9064 139.177 39.0584C138.817 39.2024 138.417 39.2744 137.977 39.2744ZM144.712 39.2744C144.264 39.2744 143.856 39.1704 143.488 38.9624C143.12 38.7464 142.828 38.4504 142.612 38.0744C142.404 37.6904 142.3 37.2504 142.3 36.7544V32.6984H143.2V36.6464C143.2 36.9904 143.268 37.2944 143.404 37.5584C143.548 37.8144 143.744 38.0144 143.992 38.1584C144.248 38.3024 144.54 38.3744 144.868 38.3744C145.196 38.3744 145.488 38.3024 145.744 38.1584C146 38.0064 146.2 37.7944 146.344 37.5224C146.488 37.2424 146.56 36.9104 146.56 36.5264V32.6984H147.46V39.1304H146.56V37.8824L146.764 37.9304C146.612 38.3464 146.352 38.6744 145.984 38.9144C145.616 39.1544 145.192 39.2744 144.712 39.2744ZM151.543 39.2744C150.927 39.2744 150.387 39.1184 149.923 38.8064C149.459 38.4944 149.123 38.0704 148.915 37.5344L149.671 37.1744C149.855 37.5664 150.111 37.8784 150.439 38.1104C150.775 38.3424 151.143 38.4584 151.543 38.4584C151.927 38.4584 152.251 38.3664 152.515 38.1824C152.779 37.9904 152.911 37.7424 152.911 37.4384C152.911 37.2144 152.847 37.0384 152.719 36.9104C152.591 36.7744 152.443 36.6704 152.275 36.5984C152.107 36.5264 151.959 36.4744 151.831 36.4424L150.907 36.1784C150.315 36.0104 149.887 35.7744 149.623 35.4704C149.359 35.1664 149.227 34.8144 149.227 34.4144C149.227 34.0384 149.323 33.7104 149.515 33.4304C149.707 33.1504 149.967 32.9344 150.295 32.7824C150.623 32.6304 150.987 32.5544 151.387 32.5544C151.931 32.5544 152.423 32.6984 152.863 32.9864C153.311 33.2664 153.627 33.6584 153.811 34.1624L153.043 34.5224C152.883 34.1624 152.651 33.8824 152.347 33.6824C152.051 33.4744 151.719 33.3704 151.351 33.3704C150.991 33.3704 150.703 33.4624 150.487 33.6464C150.271 33.8304 150.163 34.0624 150.163 34.3424C150.163 34.5584 150.219 34.7304 150.331 34.8584C150.443 34.9864 150.571 35.0824 150.715 35.1464C150.867 35.2104 150.999 35.2584 151.111 35.2904L152.179 35.6024C152.699 35.7544 153.103 35.9904 153.391 36.3104C153.687 36.6304 153.835 37.0064 153.835 37.4384C153.835 37.7904 153.735 38.1064 153.535 38.3864C153.343 38.6664 153.075 38.8864 152.731 39.0464C152.387 39.1984 151.991 39.2744 151.543 39.2744ZM158.345 39.2744C157.745 39.2744 157.201 39.1304 156.713 38.8424C156.233 38.5464 155.853 38.1424 155.573 37.6304C155.293 37.1184 155.153 36.5384 155.153 35.8904C155.153 35.2424 155.289 34.6704 155.561 34.1744C155.833 33.6704 156.201 33.2744 156.665 32.9864C157.137 32.6984 157.665 32.5544 158.249 32.5544C158.713 32.5544 159.125 32.6424 159.485 32.8184C159.853 32.9864 160.165 33.2184 160.421 33.5144C160.677 33.8024 160.873 34.1304 161.009 34.4984C161.145 34.8584 161.213 35.2304 161.213 35.6144C161.213 35.6944 161.209 35.7864 161.201 35.8904C161.193 35.9864 161.181 36.0864 161.165 36.1904H155.729V35.3504H160.649L160.217 35.7104C160.289 35.2704 160.237 34.8784 160.061 34.5344C159.893 34.1824 159.649 33.9064 159.329 33.7064C159.009 33.4984 158.649 33.3944 158.249 33.3944C157.849 33.3944 157.477 33.4984 157.133 33.7064C156.797 33.9144 156.533 34.2064 156.341 34.5824C156.149 34.9504 156.073 35.3904 156.113 35.9024C156.073 36.4144 156.153 36.8624 156.353 37.2464C156.561 37.6224 156.841 37.9144 157.193 38.1224C157.553 38.3304 157.937 38.4344 158.345 38.4344C158.817 38.4344 159.213 38.3224 159.533 38.0984C159.853 37.8744 160.113 37.5944 160.313 37.2584L161.081 37.6664C160.953 37.9544 160.757 38.2224 160.493 38.4704C160.229 38.7104 159.913 38.9064 159.545 39.0584C159.185 39.2024 158.785 39.2744 158.345 39.2744ZM167.983 39.2744C167.415 39.2744 166.899 39.1664 166.435 38.9504C165.971 38.7344 165.579 38.4464 165.259 38.0864C164.939 37.7184 164.711 37.3144 164.575 36.8744L165.439 36.5504C165.647 37.1584 165.971 37.6224 166.411 37.9424C166.851 38.2544 167.375 38.4104 167.983 38.4104C168.367 38.4104 168.703 38.3504 168.991 38.2304C169.287 38.1024 169.515 37.9264 169.675 37.7024C169.835 37.4784 169.915 37.2184 169.915 36.9224C169.915 36.4824 169.795 36.1424 169.555 35.9024C169.315 35.6624 168.971 35.4784 168.523 35.3504L166.915 34.8704C166.283 34.6864 165.795 34.3784 165.451 33.9464C165.115 33.5144 164.947 33.0224 164.947 32.4704C164.947 31.9984 165.063 31.5824 165.295 31.2224C165.527 30.8544 165.843 30.5664 166.243 30.3584C166.651 30.1504 167.111 30.0464 167.623 30.0464C168.159 30.0464 168.639 30.1464 169.063 30.3464C169.495 30.5384 169.859 30.7944 170.155 31.1144C170.451 31.4344 170.663 31.7904 170.791 32.1824L169.951 32.5184C169.759 31.9904 169.459 31.5904 169.051 31.3184C168.651 31.0464 168.179 30.9104 167.635 30.9104C167.291 30.9104 166.987 30.9704 166.723 31.0904C166.467 31.2104 166.267 31.3824 166.123 31.6064C165.979 31.8304 165.907 32.0944 165.907 32.3984C165.907 32.7664 166.023 33.0984 166.255 33.3944C166.487 33.6824 166.843 33.8984 167.323 34.0424L168.739 34.4624C169.443 34.6704 169.975 34.9704 170.335 35.3624C170.695 35.7544 170.875 36.2464 170.875 36.8384C170.875 37.3184 170.751 37.7424 170.503 38.1104C170.263 38.4704 169.923 38.7544 169.483 38.9624C169.051 39.1704 168.551 39.2744 167.983 39.2744ZM175.056 39.2024C174.48 39.2024 174.036 39.0344 173.724 38.6984C173.412 38.3624 173.256 37.8824 173.256 37.2584V33.5984H172.068V32.6984H172.368C172.64 32.6984 172.856 32.6104 173.016 32.4344C173.176 32.2504 173.256 32.0224 173.256 31.7504V31.2104H174.156V32.6984H175.572V33.5984H174.156V37.2584C174.156 37.4744 174.188 37.6664 174.252 37.8344C174.316 37.9944 174.424 38.1224 174.576 38.2184C174.736 38.3144 174.948 38.3624 175.212 38.3624C175.276 38.3624 175.352 38.3584 175.44 38.3504C175.528 38.3424 175.604 38.3344 175.668 38.3264V39.1304C175.572 39.1544 175.464 39.1704 175.344 39.1784C175.224 39.1944 175.128 39.2024 175.056 39.2024ZM180.026 39.2744C179.418 39.2744 178.866 39.1304 178.37 38.8424C177.874 38.5464 177.478 38.1464 177.182 37.6424C176.894 37.1304 176.75 36.5504 176.75 35.9024C176.75 35.2624 176.894 34.6904 177.182 34.1864C177.47 33.6824 177.858 33.2864 178.346 32.9984C178.842 32.7024 179.402 32.5544 180.026 32.5544C180.65 32.5544 181.206 32.6984 181.694 32.9864C182.19 33.2744 182.578 33.6704 182.858 34.1744C183.146 34.6784 183.29 35.2544 183.29 35.9024C183.29 36.5584 183.142 37.1424 182.846 37.6544C182.55 38.1584 182.154 38.5544 181.658 38.8424C181.17 39.1304 180.626 39.2744 180.026 39.2744ZM180.026 38.3744C180.458 38.3744 180.846 38.2664 181.19 38.0504C181.542 37.8344 181.818 37.5384 182.018 37.1624C182.226 36.7864 182.33 36.3664 182.33 35.9024C182.33 35.4384 182.226 35.0224 182.018 34.6544C181.818 34.2864 181.542 33.9944 181.19 33.7784C180.846 33.5624 180.458 33.4544 180.026 33.4544C179.594 33.4544 179.202 33.5624 178.85 33.7784C178.506 33.9944 178.23 34.2864 178.022 34.6544C177.814 35.0224 177.71 35.4384 177.71 35.9024C177.71 36.3664 177.814 36.7864 178.022 37.1624C178.23 37.5384 178.506 37.8344 178.85 38.0504C179.202 38.2664 179.594 38.3744 180.026 38.3744ZM184.878 39.1304V32.6984H185.778V33.7544L185.658 33.5984C185.81 33.2944 186.038 33.0544 186.342 32.8784C186.654 32.7024 187.03 32.6144 187.47 32.6144H187.878V33.5144H187.314C186.85 33.5144 186.478 33.6584 186.198 33.9464C185.918 34.2344 185.778 34.6424 185.778 35.1704V39.1304H184.878ZM191.86 39.2744C191.26 39.2744 190.716 39.1304 190.228 38.8424C189.748 38.5464 189.368 38.1424 189.088 37.6304C188.808 37.1184 188.668 36.5384 188.668 35.8904C188.668 35.2424 188.804 34.6704 189.076 34.1744C189.348 33.6704 189.716 33.2744 190.18 32.9864C190.652 32.6984 191.18 32.5544 191.764 32.5544C192.228 32.5544 192.64 32.6424 193 32.8184C193.368 32.9864 193.68 33.2184 193.936 33.5144C194.192 33.8024 194.388 34.1304 194.524 34.4984C194.66 34.8584 194.728 35.2304 194.728 35.6144C194.728 35.6944 194.724 35.7864 194.716 35.8904C194.708 35.9864 194.696 36.0864 194.68 36.1904H189.244V35.3504H194.164L193.732 35.7104C193.804 35.2704 193.752 34.8784 193.576 34.5344C193.408 34.1824 193.164 33.9064 192.844 33.7064C192.524 33.4984 192.164 33.3944 191.764 33.3944C191.364 33.3944 190.992 33.4984 190.648 33.7064C190.312 33.9144 190.048 34.2064 189.856 34.5824C189.664 34.9504 189.588 35.3904 189.628 35.9024C189.588 36.4144 189.668 36.8624 189.868 37.2464C190.076 37.6224 190.356 37.9144 190.708 38.1224C191.068 38.3304 191.452 38.4344 191.86 38.4344C192.332 38.4344 192.728 38.3224 193.048 38.0984C193.368 37.8744 193.628 37.5944 193.828 37.2584L194.596 37.6664C194.468 37.9544 194.272 38.2224 194.008 38.4704C193.744 38.7104 193.428 38.9064 193.06 39.0584C192.7 39.2024 192.3 39.2744 191.86 39.2744Z" fill="white"/>
</svg>
