<svg width="196" height="47" viewBox="0 0 196 47" fill="none" xmlns="http://www.w3.org/2000/svg">
<path d="M24.936 1.5C36.8458 1.50025 46.5005 11.1554 46.5005 23.0654C46.5004 34.9753 36.8457 44.6306 24.936 44.6309C13.0261 44.6309 3.37073 34.9755 3.37061 23.0654C3.37061 11.1553 13.026 1.5 24.936 1.5Z" stroke="#1FB43F" stroke-width="3"/>
<path d="M24.9341 8.97803C32.7127 8.97803 39.019 15.2843 39.019 23.063C39.0188 30.8415 32.7126 37.147 24.9341 37.147C17.1558 37.1467 10.8503 30.8414 10.8501 23.063C10.8501 15.2844 17.1557 8.97827 24.9341 8.97803Z" stroke="#1FB43F" stroke-width="3"/>
<path d="M21.1002 25.9678V14.0478H29.0202V15.9678H23.2762V19.0238H28.7002V20.9438H23.2762V24.0478H29.0202V25.9678H21.1002Z" fill="#1FB43F"/>
<path d="M11.2207 23.3706C19.0383 24.8802 22.1541 28.2006 24.3116 37.085" stroke="#1FB43F" stroke-width="2"/>
<path d="M0 20.5699L2.49351 20.5701L2.18182 24.9336L0 20.5699Z" fill="#1FB43F"/>
<path d="M9.104 36.166L10.9741 39.2829H14.7144L12.8443 36.166H9.104Z" fill="#1FB43F"/>
<path d="M35.7793 8.10059L37.6494 11.2175H41.3897L39.5196 8.10059H35.7793Z" fill="#1FB43F"/>
<path d="M33.0398 26.1816C27.4665 27.0384 25.2946 28.9 24.3125 32.7272V33.0389L25.5593 32.1038L27.7411 30.5453L26.4943 33.9739C30.0697 32.5303 31.583 30.9361 33.0398 26.1816Z" fill="#1FB43F" stroke="#1FB43F"/>
<path d="M31.545 19.327C34.3502 19.0153 34.9736 14.6516 31.2333 10.5996L37.1554 15.8984C36.5377 18.2183 33.7269 20.8854 33.1035 20.2621C32.4801 19.6387 31.545 20.2621 31.545 20.2621V19.327Z" fill="#1FB43F"/>
<path d="M22.1944 19.2826C20.7646 18.2269 19.9461 17.8886 18.4541 17.7685C19.5445 20.8513 20.3274 21.8832 22.0757 22.2956L22.1944 19.2826Z" fill="#1FB43F"/>
<path d="M22.1944 22.4439L22.0757 22.2956M22.0757 22.2956C20.3274 21.8832 19.5445 20.8513 18.4541 17.7685C19.9461 17.8886 20.7646 18.2269 22.1944 19.2826L22.0757 22.2956ZM31.2333 10.5996C34.9736 14.6516 34.3502 19.0153 31.545 19.327V20.2621C31.545 20.2621 32.4801 19.6387 33.1035 20.2621C33.7269 20.8854 36.5377 18.2183 37.1554 15.8984L31.2333 10.5996Z" stroke="#1FB43F"/>
<path d="M59.7285 22V4.12H71.6085V7H62.9925V11.584H71.1285V14.464H62.9925V19.12H71.6085V22H59.7285ZM81.9459 22.288C80.6499 22.288 79.4819 21.992 78.4419 21.4C77.4179 20.792 76.6099 19.976 76.0179 18.952C75.4259 17.912 75.1299 16.744 75.1299 15.448C75.1299 14.152 75.4259 12.992 76.0179 11.968C76.6099 10.944 77.4179 10.136 78.4419 9.544C79.4819 8.952 80.6499 8.656 81.9459 8.656C82.8739 8.656 83.7379 8.824 84.5379 9.16C85.3379 9.48 86.0259 9.928 86.6019 10.504C87.1939 11.064 87.6179 11.736 87.8739 12.52L85.1139 13.72C84.8739 13.064 84.4659 12.536 83.8899 12.136C83.3299 11.736 82.6819 11.536 81.9459 11.536C81.2579 11.536 80.6419 11.704 80.0979 12.04C79.5699 12.376 79.1539 12.84 78.8499 13.432C78.5459 14.024 78.3939 14.704 78.3939 15.472C78.3939 16.24 78.5459 16.92 78.8499 17.512C79.1539 18.104 79.5699 18.568 80.0979 18.904C80.6419 19.24 81.2579 19.408 81.9459 19.408C82.6979 19.408 83.3539 19.208 83.9139 18.808C84.4739 18.408 84.8739 17.872 85.1139 17.2L87.8739 18.448C87.6179 19.184 87.2019 19.848 86.6259 20.44C86.0499 21.016 85.3619 21.472 84.5619 21.808C83.7619 22.128 82.8899 22.288 81.9459 22.288ZM98.5635 22.288C97.2835 22.288 96.1155 21.992 95.0595 21.4C94.0195 20.808 93.1875 20 92.5635 18.976C91.9555 17.952 91.6515 16.784 91.6515 15.472C91.6515 14.16 91.9555 12.992 92.5635 11.968C93.1875 10.944 94.0195 10.136 95.0595 9.544C96.0995 8.952 97.2675 8.656 98.5635 8.656C99.8435 8.656 101.003 8.952 102.043 9.544C103.083 10.136 103.907 10.944 104.515 11.968C105.139 12.976 105.451 14.144 105.451 15.472C105.451 16.784 105.139 17.952 104.515 18.976C103.891 20 103.059 20.808 102.019 21.4C100.979 21.992 99.8275 22.288 98.5635 22.288ZM98.5635 19.408C99.2675 19.408 99.8835 19.24 100.411 18.904C100.955 18.568 101.379 18.104 101.683 17.512C102.003 16.904 102.163 16.224 102.163 15.472C102.163 14.704 102.003 14.032 101.683 13.456C101.379 12.864 100.955 12.4 100.411 12.064C99.8835 11.712 99.2675 11.536 98.5635 11.536C97.8435 11.536 97.2115 11.712 96.6675 12.064C96.1235 12.4 95.6915 12.864 95.3715 13.456C95.0675 14.032 94.9155 14.704 94.9155 15.472C94.9155 16.224 95.0675 16.904 95.3715 17.512C95.6915 18.104 96.1235 18.568 96.6675 18.904C97.2115 19.24 97.8435 19.408 98.5635 19.408ZM116.205 22V4.12H119.469V11.92H127.077V4.12H130.365V22H127.077V14.8H119.469V22H116.205ZM137.047 27.28C136.695 27.28 136.351 27.248 136.015 27.184C135.679 27.136 135.375 27.04 135.103 26.896V24.28C135.311 24.328 135.559 24.376 135.847 24.424C136.151 24.472 136.431 24.496 136.687 24.496C137.407 24.496 137.927 24.328 138.247 23.992C138.583 23.672 138.879 23.24 139.135 22.696L139.999 20.68L139.951 23.32L134.263 8.944H137.647L141.631 19.552H140.431L144.391 8.944H147.799L142.111 23.32C141.775 24.152 141.367 24.864 140.887 25.456C140.407 26.048 139.847 26.496 139.207 26.8C138.583 27.12 137.863 27.28 137.047 27.28ZM158.573 22.288C157.629 22.288 156.757 22.104 155.957 21.736C155.173 21.352 154.549 20.808 154.085 20.104L154.397 19.48V22H151.445V3.832H154.589V11.536L154.109 10.888C154.557 10.184 155.165 9.64 155.933 9.256C156.701 8.856 157.589 8.656 158.597 8.656C159.829 8.656 160.941 8.96 161.933 9.568C162.925 10.176 163.709 10.992 164.285 12.016C164.877 13.04 165.173 14.192 165.173 15.472C165.173 16.736 164.885 17.888 164.309 18.928C163.733 19.968 162.949 20.792 161.957 21.4C160.965 21.992 159.837 22.288 158.573 22.288ZM158.213 19.408C158.933 19.408 159.573 19.24 160.133 18.904C160.693 18.568 161.125 18.104 161.429 17.512C161.749 16.92 161.909 16.24 161.909 15.472C161.909 14.704 161.749 14.032 161.429 13.456C161.125 12.864 160.693 12.4 160.133 12.064C159.573 11.712 158.933 11.536 158.213 11.536C157.525 11.536 156.901 11.704 156.341 12.04C155.797 12.376 155.365 12.848 155.045 13.456C154.741 14.048 154.589 14.72 154.589 15.472C154.589 16.24 154.741 16.92 155.045 17.512C155.365 18.104 155.797 18.568 156.341 18.904C156.901 19.24 157.525 19.408 158.213 19.408ZM175.682 22.288C174.338 22.288 173.162 21.984 172.154 21.376C171.146 20.768 170.362 19.944 169.802 18.904C169.242 17.864 168.962 16.712 168.962 15.448C168.962 14.136 169.242 12.976 169.802 11.968C170.378 10.944 171.154 10.136 172.13 9.544C173.122 8.952 174.226 8.656 175.442 8.656C176.466 8.656 177.362 8.824 178.13 9.16C178.914 9.496 179.578 9.96 180.122 10.552C180.666 11.144 181.082 11.824 181.37 12.592C181.658 13.344 181.802 14.16 181.802 15.04C181.802 15.264 181.786 15.496 181.754 15.736C181.738 15.976 181.698 16.184 181.634 16.36H171.554V13.96H179.858L178.37 15.088C178.514 14.352 178.474 13.696 178.25 13.12C178.042 12.544 177.69 12.088 177.194 11.752C176.714 11.416 176.13 11.248 175.442 11.248C174.786 11.248 174.202 11.416 173.69 11.752C173.178 12.072 172.786 12.552 172.514 13.192C172.258 13.816 172.162 14.576 172.226 15.472C172.162 16.272 172.266 16.984 172.538 17.608C172.826 18.216 173.242 18.688 173.786 19.024C174.346 19.36 174.986 19.528 175.706 19.528C176.426 19.528 177.034 19.376 177.53 19.072C178.042 18.768 178.442 18.36 178.73 17.848L181.274 19.096C181.018 19.72 180.618 20.272 180.074 20.752C179.53 21.232 178.882 21.608 178.13 21.88C177.394 22.152 176.578 22.288 175.682 22.288Z" fill="#1FB43F"/>
<path d="M62.0685 39.144C61.5005 39.144 60.9845 39.036 60.5205 38.82C60.0565 38.604 59.6645 38.316 59.3445 37.956C59.0245 37.588 58.7965 37.184 58.6605 36.744L59.5245 36.42C59.7325 37.028 60.0565 37.492 60.4965 37.812C60.9365 38.124 61.4605 38.28 62.0685 38.28C62.4525 38.28 62.7885 38.22 63.0765 38.1C63.3725 37.972 63.6005 37.796 63.7605 37.572C63.9205 37.348 64.0005 37.088 64.0005 36.792C64.0005 36.352 63.8805 36.012 63.6405 35.772C63.4005 35.532 63.0565 35.348 62.6085 35.22L61.0005 34.74C60.3685 34.556 59.8805 34.248 59.5365 33.816C59.2005 33.384 59.0325 32.892 59.0325 32.34C59.0325 31.868 59.1485 31.452 59.3805 31.092C59.6125 30.724 59.9285 30.436 60.3285 30.228C60.7365 30.02 61.1965 29.916 61.7085 29.916C62.2445 29.916 62.7245 30.016 63.1485 30.216C63.5805 30.408 63.9445 30.664 64.2405 30.984C64.5365 31.304 64.7485 31.66 64.8765 32.052L64.0365 32.388C63.8445 31.86 63.5445 31.46 63.1365 31.188C62.7365 30.916 62.2645 30.78 61.7205 30.78C61.3765 30.78 61.0725 30.84 60.8085 30.96C60.5525 31.08 60.3525 31.252 60.2085 31.476C60.0645 31.7 59.9925 31.964 59.9925 32.268C59.9925 32.636 60.1085 32.968 60.3405 33.264C60.5725 33.552 60.9285 33.768 61.4085 33.912L62.8245 34.332C63.5285 34.54 64.0605 34.84 64.4205 35.232C64.7805 35.624 64.9605 36.116 64.9605 36.708C64.9605 37.188 64.8365 37.612 64.5885 37.98C64.3485 38.34 64.0085 38.624 63.5685 38.832C63.1365 39.04 62.6365 39.144 62.0685 39.144ZM68.9623 39.144C68.5143 39.144 68.1063 39.04 67.7383 38.832C67.3703 38.616 67.0783 38.32 66.8623 37.944C66.6543 37.56 66.5503 37.12 66.5503 36.624V32.568H67.4503V36.516C67.4503 36.86 67.5183 37.164 67.6543 37.428C67.7983 37.684 67.9943 37.884 68.2423 38.028C68.4983 38.172 68.7903 38.244 69.1183 38.244C69.4463 38.244 69.7383 38.172 69.9943 38.028C70.2503 37.876 70.4503 37.664 70.5943 37.392C70.7383 37.112 70.8103 36.78 70.8103 36.396V32.568H71.7103V39H70.8103V37.752L71.0143 37.8C70.8623 38.216 70.6023 38.544 70.2343 38.784C69.8663 39.024 69.4423 39.144 68.9623 39.144ZM75.7932 39.144C75.1772 39.144 74.6372 38.988 74.1732 38.676C73.7092 38.364 73.3732 37.94 73.1652 37.404L73.9212 37.044C74.1052 37.436 74.3612 37.748 74.6892 37.98C75.0252 38.212 75.3932 38.328 75.7932 38.328C76.1772 38.328 76.5012 38.236 76.7652 38.052C77.0292 37.86 77.1612 37.612 77.1612 37.308C77.1612 37.084 77.0972 36.908 76.9692 36.78C76.8412 36.644 76.6932 36.54 76.5252 36.468C76.3572 36.396 76.2092 36.344 76.0812 36.312L75.1572 36.048C74.5652 35.88 74.1372 35.644 73.8732 35.34C73.6092 35.036 73.4772 34.684 73.4772 34.284C73.4772 33.908 73.5732 33.58 73.7652 33.3C73.9572 33.02 74.2172 32.804 74.5452 32.652C74.8732 32.5 75.2372 32.424 75.6372 32.424C76.1812 32.424 76.6732 32.568 77.1132 32.856C77.5612 33.136 77.8772 33.528 78.0612 34.032L77.2932 34.392C77.1332 34.032 76.9012 33.752 76.5972 33.552C76.3012 33.344 75.9692 33.24 75.6012 33.24C75.2412 33.24 74.9532 33.332 74.7372 33.516C74.5212 33.7 74.4132 33.932 74.4132 34.212C74.4132 34.428 74.4692 34.6 74.5812 34.728C74.6932 34.856 74.8212 34.952 74.9652 35.016C75.1172 35.08 75.2492 35.128 75.3612 35.16L76.4292 35.472C76.9492 35.624 77.3532 35.86 77.6412 36.18C77.9372 36.5 78.0852 36.876 78.0852 37.308C78.0852 37.66 77.9852 37.976 77.7852 38.256C77.5932 38.536 77.3252 38.756 76.9812 38.916C76.6372 39.068 76.2412 39.144 75.7932 39.144ZM82.1267 39.072C81.5507 39.072 81.1067 38.904 80.7947 38.568C80.4827 38.232 80.3267 37.752 80.3267 37.128V33.468H79.1387V32.568H79.4387C79.7107 32.568 79.9267 32.48 80.0867 32.304C80.2467 32.12 80.3267 31.892 80.3267 31.62V31.08H81.2267V32.568H82.6427V33.468H81.2267V37.128C81.2267 37.344 81.2587 37.536 81.3227 37.704C81.3867 37.864 81.4947 37.992 81.6467 38.088C81.8067 38.184 82.0187 38.232 82.2827 38.232C82.3467 38.232 82.4227 38.228 82.5107 38.22C82.5987 38.212 82.6747 38.204 82.7387 38.196V39C82.6427 39.024 82.5347 39.04 82.4147 39.048C82.2947 39.064 82.1987 39.072 82.1267 39.072ZM86.0618 39.144C85.6538 39.144 85.2898 39.068 84.9698 38.916C84.6498 38.756 84.3978 38.54 84.2138 38.268C84.0298 37.996 83.9378 37.684 83.9378 37.332C83.9378 36.996 84.0098 36.692 84.1538 36.42C84.2978 36.14 84.5218 35.904 84.8258 35.712C85.1298 35.52 85.5178 35.384 85.9898 35.304L88.5098 34.884V35.7L86.2058 36.084C85.7418 36.164 85.4058 36.312 85.1978 36.528C84.9978 36.744 84.8978 37 84.8978 37.296C84.8978 37.584 85.0098 37.828 85.2338 38.028C85.4658 38.228 85.7618 38.328 86.1218 38.328C86.5618 38.328 86.9458 38.236 87.2738 38.052C87.6018 37.86 87.8578 37.604 88.0418 37.284C88.2258 36.964 88.3178 36.608 88.3178 36.216V34.584C88.3178 34.2 88.1778 33.888 87.8978 33.648C87.6178 33.408 87.2538 33.288 86.8058 33.288C86.4138 33.288 86.0698 33.388 85.7738 33.588C85.4778 33.78 85.2578 34.032 85.1138 34.344L84.2978 33.9C84.4178 33.628 84.6058 33.38 84.8618 33.156C85.1258 32.932 85.4258 32.756 85.7618 32.628C86.0978 32.492 86.4458 32.424 86.8058 32.424C87.2778 32.424 87.6938 32.516 88.0538 32.7C88.4218 32.884 88.7058 33.14 88.9058 33.468C89.1138 33.788 89.2178 34.16 89.2178 34.584V39H88.3178V37.716L88.4498 37.848C88.3378 38.088 88.1618 38.308 87.9218 38.508C87.6898 38.7 87.4138 38.856 87.0938 38.976C86.7818 39.088 86.4378 39.144 86.0618 39.144ZM91.069 39V32.568H91.969V39H91.069ZM91.069 31.38V30.06H91.969V31.38H91.069ZM93.8112 39V32.568H94.7112V33.816L94.5072 33.768C94.6672 33.352 94.9272 33.024 95.2872 32.784C95.6552 32.544 96.0792 32.424 96.5592 32.424C97.0152 32.424 97.4232 32.528 97.7832 32.736C98.1512 32.944 98.4392 33.232 98.6472 33.6C98.8632 33.96 98.9712 34.368 98.9712 34.824V39H98.0712V35.172C98.0712 34.78 97.9992 34.448 97.8552 34.176C97.7192 33.904 97.5232 33.696 97.2672 33.552C97.0192 33.4 96.7312 33.324 96.4032 33.324C96.0752 33.324 95.7832 33.4 95.5272 33.552C95.2712 33.696 95.0712 33.908 94.9272 34.188C94.7832 34.46 94.7112 34.788 94.7112 35.172V39H93.8112ZM102.55 39.144C102.142 39.144 101.778 39.068 101.458 38.916C101.138 38.756 100.886 38.54 100.702 38.268C100.518 37.996 100.426 37.684 100.426 37.332C100.426 36.996 100.498 36.692 100.642 36.42C100.786 36.14 101.01 35.904 101.314 35.712C101.618 35.52 102.006 35.384 102.478 35.304L104.998 34.884V35.7L102.694 36.084C102.23 36.164 101.894 36.312 101.686 36.528C101.486 36.744 101.386 37 101.386 37.296C101.386 37.584 101.498 37.828 101.722 38.028C101.954 38.228 102.25 38.328 102.61 38.328C103.05 38.328 103.434 38.236 103.762 38.052C104.09 37.86 104.346 37.604 104.53 37.284C104.714 36.964 104.806 36.608 104.806 36.216V34.584C104.806 34.2 104.666 33.888 104.386 33.648C104.106 33.408 103.742 33.288 103.294 33.288C102.902 33.288 102.558 33.388 102.262 33.588C101.966 33.78 101.746 34.032 101.602 34.344L100.786 33.9C100.906 33.628 101.094 33.38 101.35 33.156C101.614 32.932 101.914 32.756 102.25 32.628C102.586 32.492 102.934 32.424 103.294 32.424C103.766 32.424 104.182 32.516 104.542 32.7C104.91 32.884 105.194 33.14 105.394 33.468C105.602 33.788 105.706 34.16 105.706 34.584V39H104.806V37.716L104.938 37.848C104.826 38.088 104.65 38.308 104.41 38.508C104.178 38.7 103.902 38.856 103.582 38.976C103.27 39.088 102.926 39.144 102.55 39.144ZM110.809 39.144C110.257 39.144 109.757 39.02 109.309 38.772C108.869 38.516 108.537 38.156 108.313 37.692L108.457 37.56V39H107.557V29.916H108.457V34.008L108.313 33.756C108.569 33.348 108.909 33.024 109.333 32.784C109.765 32.544 110.257 32.424 110.809 32.424C111.417 32.424 111.957 32.572 112.429 32.868C112.909 33.156 113.285 33.552 113.557 34.056C113.837 34.56 113.977 35.136 113.977 35.784C113.977 36.424 113.837 37 113.557 37.512C113.285 38.016 112.909 38.416 112.429 38.712C111.957 39 111.417 39.144 110.809 39.144ZM110.761 38.244C111.193 38.244 111.577 38.136 111.913 37.92C112.257 37.704 112.525 37.412 112.717 37.044C112.917 36.668 113.017 36.248 113.017 35.784C113.017 35.312 112.917 34.892 112.717 34.524C112.525 34.156 112.257 33.864 111.913 33.648C111.577 33.432 111.193 33.324 110.761 33.324C110.329 33.324 109.937 33.432 109.585 33.648C109.241 33.864 108.965 34.16 108.757 34.536C108.557 34.904 108.457 35.32 108.457 35.784C108.457 36.248 108.557 36.668 108.757 37.044C108.965 37.412 109.241 37.704 109.585 37.92C109.937 38.136 110.329 38.244 110.761 38.244ZM115.561 39V29.916H116.461V39H115.561ZM121.231 39.144C120.631 39.144 120.087 39 119.599 38.712C119.119 38.416 118.739 38.012 118.459 37.5C118.179 36.988 118.039 36.408 118.039 35.76C118.039 35.112 118.175 34.54 118.447 34.044C118.719 33.54 119.087 33.144 119.551 32.856C120.023 32.568 120.551 32.424 121.135 32.424C121.599 32.424 122.011 32.512 122.371 32.688C122.739 32.856 123.051 33.088 123.307 33.384C123.563 33.672 123.759 34 123.895 34.368C124.031 34.728 124.099 35.1 124.099 35.484C124.099 35.564 124.095 35.656 124.087 35.76C124.079 35.856 124.067 35.956 124.051 36.06H118.615V35.22H123.535L123.103 35.58C123.175 35.14 123.123 34.748 122.947 34.404C122.779 34.052 122.535 33.776 122.215 33.576C121.895 33.368 121.535 33.264 121.135 33.264C120.735 33.264 120.363 33.368 120.019 33.576C119.683 33.784 119.419 34.076 119.227 34.452C119.035 34.82 118.959 35.26 118.999 35.772C118.959 36.284 119.039 36.732 119.239 37.116C119.447 37.492 119.727 37.784 120.079 37.992C120.439 38.2 120.823 38.304 121.231 38.304C121.703 38.304 122.099 38.192 122.419 37.968C122.739 37.744 122.999 37.464 123.199 37.128L123.967 37.536C123.839 37.824 123.643 38.092 123.379 38.34C123.115 38.58 122.799 38.776 122.431 38.928C122.071 39.072 121.671 39.144 121.231 39.144ZM127.857 39V30.06H130.929C131.513 30.06 132.025 30.176 132.465 30.408C132.905 30.632 133.245 30.952 133.485 31.368C133.733 31.776 133.857 32.252 133.857 32.796C133.857 33.428 133.689 33.968 133.353 34.416C133.025 34.864 132.577 35.18 132.009 35.364L134.097 39H132.969L130.785 35.148L131.433 35.52H128.817V39H127.857ZM128.817 34.62H130.977C131.361 34.62 131.697 34.548 131.985 34.404C132.273 34.252 132.497 34.04 132.657 33.768C132.817 33.488 132.897 33.16 132.897 32.784C132.897 32.408 132.817 32.084 132.657 31.812C132.497 31.54 132.273 31.332 131.985 31.188C131.697 31.036 131.361 30.96 130.977 30.96H128.817V34.62ZM137.977 39.144C137.377 39.144 136.833 39 136.345 38.712C135.865 38.416 135.485 38.012 135.205 37.5C134.925 36.988 134.785 36.408 134.785 35.76C134.785 35.112 134.921 34.54 135.193 34.044C135.465 33.54 135.833 33.144 136.297 32.856C136.769 32.568 137.297 32.424 137.881 32.424C138.345 32.424 138.757 32.512 139.117 32.688C139.485 32.856 139.797 33.088 140.053 33.384C140.309 33.672 140.505 34 140.641 34.368C140.777 34.728 140.845 35.1 140.845 35.484C140.845 35.564 140.841 35.656 140.833 35.76C140.825 35.856 140.813 35.956 140.797 36.06H135.361V35.22H140.281L139.849 35.58C139.921 35.14 139.869 34.748 139.693 34.404C139.525 34.052 139.281 33.776 138.961 33.576C138.641 33.368 138.281 33.264 137.881 33.264C137.481 33.264 137.109 33.368 136.765 33.576C136.429 33.784 136.165 34.076 135.973 34.452C135.781 34.82 135.705 35.26 135.745 35.772C135.705 36.284 135.785 36.732 135.985 37.116C136.193 37.492 136.473 37.784 136.825 37.992C137.185 38.2 137.569 38.304 137.977 38.304C138.449 38.304 138.845 38.192 139.165 37.968C139.485 37.744 139.745 37.464 139.945 37.128L140.713 37.536C140.585 37.824 140.389 38.092 140.125 38.34C139.861 38.58 139.545 38.776 139.177 38.928C138.817 39.072 138.417 39.144 137.977 39.144ZM144.712 39.144C144.264 39.144 143.856 39.04 143.488 38.832C143.12 38.616 142.828 38.32 142.612 37.944C142.404 37.56 142.3 37.12 142.3 36.624V32.568H143.2V36.516C143.2 36.86 143.268 37.164 143.404 37.428C143.548 37.684 143.744 37.884 143.992 38.028C144.248 38.172 144.54 38.244 144.868 38.244C145.196 38.244 145.488 38.172 145.744 38.028C146 37.876 146.2 37.664 146.344 37.392C146.488 37.112 146.56 36.78 146.56 36.396V32.568H147.46V39H146.56V37.752L146.764 37.8C146.612 38.216 146.352 38.544 145.984 38.784C145.616 39.024 145.192 39.144 144.712 39.144ZM151.543 39.144C150.927 39.144 150.387 38.988 149.923 38.676C149.459 38.364 149.123 37.94 148.915 37.404L149.671 37.044C149.855 37.436 150.111 37.748 150.439 37.98C150.775 38.212 151.143 38.328 151.543 38.328C151.927 38.328 152.251 38.236 152.515 38.052C152.779 37.86 152.911 37.612 152.911 37.308C152.911 37.084 152.847 36.908 152.719 36.78C152.591 36.644 152.443 36.54 152.275 36.468C152.107 36.396 151.959 36.344 151.831 36.312L150.907 36.048C150.315 35.88 149.887 35.644 149.623 35.34C149.359 35.036 149.227 34.684 149.227 34.284C149.227 33.908 149.323 33.58 149.515 33.3C149.707 33.02 149.967 32.804 150.295 32.652C150.623 32.5 150.987 32.424 151.387 32.424C151.931 32.424 152.423 32.568 152.863 32.856C153.311 33.136 153.627 33.528 153.811 34.032L153.043 34.392C152.883 34.032 152.651 33.752 152.347 33.552C152.051 33.344 151.719 33.24 151.351 33.24C150.991 33.24 150.703 33.332 150.487 33.516C150.271 33.7 150.163 33.932 150.163 34.212C150.163 34.428 150.219 34.6 150.331 34.728C150.443 34.856 150.571 34.952 150.715 35.016C150.867 35.08 150.999 35.128 151.111 35.16L152.179 35.472C152.699 35.624 153.103 35.86 153.391 36.18C153.687 36.5 153.835 36.876 153.835 37.308C153.835 37.66 153.735 37.976 153.535 38.256C153.343 38.536 153.075 38.756 152.731 38.916C152.387 39.068 151.991 39.144 151.543 39.144ZM158.345 39.144C157.745 39.144 157.201 39 156.713 38.712C156.233 38.416 155.853 38.012 155.573 37.5C155.293 36.988 155.153 36.408 155.153 35.76C155.153 35.112 155.289 34.54 155.561 34.044C155.833 33.54 156.201 33.144 156.665 32.856C157.137 32.568 157.665 32.424 158.249 32.424C158.713 32.424 159.125 32.512 159.485 32.688C159.853 32.856 160.165 33.088 160.421 33.384C160.677 33.672 160.873 34 161.009 34.368C161.145 34.728 161.213 35.1 161.213 35.484C161.213 35.564 161.209 35.656 161.201 35.76C161.193 35.856 161.181 35.956 161.165 36.06H155.729V35.22H160.649L160.217 35.58C160.289 35.14 160.237 34.748 160.061 34.404C159.893 34.052 159.649 33.776 159.329 33.576C159.009 33.368 158.649 33.264 158.249 33.264C157.849 33.264 157.477 33.368 157.133 33.576C156.797 33.784 156.533 34.076 156.341 34.452C156.149 34.82 156.073 35.26 156.113 35.772C156.073 36.284 156.153 36.732 156.353 37.116C156.561 37.492 156.841 37.784 157.193 37.992C157.553 38.2 157.937 38.304 158.345 38.304C158.817 38.304 159.213 38.192 159.533 37.968C159.853 37.744 160.113 37.464 160.313 37.128L161.081 37.536C160.953 37.824 160.757 38.092 160.493 38.34C160.229 38.58 159.913 38.776 159.545 38.928C159.185 39.072 158.785 39.144 158.345 39.144ZM167.983 39.144C167.415 39.144 166.899 39.036 166.435 38.82C165.971 38.604 165.579 38.316 165.259 37.956C164.939 37.588 164.711 37.184 164.575 36.744L165.439 36.42C165.647 37.028 165.971 37.492 166.411 37.812C166.851 38.124 167.375 38.28 167.983 38.28C168.367 38.28 168.703 38.22 168.991 38.1C169.287 37.972 169.515 37.796 169.675 37.572C169.835 37.348 169.915 37.088 169.915 36.792C169.915 36.352 169.795 36.012 169.555 35.772C169.315 35.532 168.971 35.348 168.523 35.22L166.915 34.74C166.283 34.556 165.795 34.248 165.451 33.816C165.115 33.384 164.947 32.892 164.947 32.34C164.947 31.868 165.063 31.452 165.295 31.092C165.527 30.724 165.843 30.436 166.243 30.228C166.651 30.02 167.111 29.916 167.623 29.916C168.159 29.916 168.639 30.016 169.063 30.216C169.495 30.408 169.859 30.664 170.155 30.984C170.451 31.304 170.663 31.66 170.791 32.052L169.951 32.388C169.759 31.86 169.459 31.46 169.051 31.188C168.651 30.916 168.179 30.78 167.635 30.78C167.291 30.78 166.987 30.84 166.723 30.96C166.467 31.08 166.267 31.252 166.123 31.476C165.979 31.7 165.907 31.964 165.907 32.268C165.907 32.636 166.023 32.968 166.255 33.264C166.487 33.552 166.843 33.768 167.323 33.912L168.739 34.332C169.443 34.54 169.975 34.84 170.335 35.232C170.695 35.624 170.875 36.116 170.875 36.708C170.875 37.188 170.751 37.612 170.503 37.98C170.263 38.34 169.923 38.624 169.483 38.832C169.051 39.04 168.551 39.144 167.983 39.144ZM175.056 39.072C174.48 39.072 174.036 38.904 173.724 38.568C173.412 38.232 173.256 37.752 173.256 37.128V33.468H172.068V32.568H172.368C172.64 32.568 172.856 32.48 173.016 32.304C173.176 32.12 173.256 31.892 173.256 31.62V31.08H174.156V32.568H175.572V33.468H174.156V37.128C174.156 37.344 174.188 37.536 174.252 37.704C174.316 37.864 174.424 37.992 174.576 38.088C174.736 38.184 174.948 38.232 175.212 38.232C175.276 38.232 175.352 38.228 175.44 38.22C175.528 38.212 175.604 38.204 175.668 38.196V39C175.572 39.024 175.464 39.04 175.344 39.048C175.224 39.064 175.128 39.072 175.056 39.072ZM180.026 39.144C179.418 39.144 178.866 39 178.37 38.712C177.874 38.416 177.478 38.016 177.182 37.512C176.894 37 176.75 36.42 176.75 35.772C176.75 35.132 176.894 34.56 177.182 34.056C177.47 33.552 177.858 33.156 178.346 32.868C178.842 32.572 179.402 32.424 180.026 32.424C180.65 32.424 181.206 32.568 181.694 32.856C182.19 33.144 182.578 33.54 182.858 34.044C183.146 34.548 183.29 35.124 183.29 35.772C183.29 36.428 183.142 37.012 182.846 37.524C182.55 38.028 182.154 38.424 181.658 38.712C181.17 39 180.626 39.144 180.026 39.144ZM180.026 38.244C180.458 38.244 180.846 38.136 181.19 37.92C181.542 37.704 181.818 37.408 182.018 37.032C182.226 36.656 182.33 36.236 182.33 35.772C182.33 35.308 182.226 34.892 182.018 34.524C181.818 34.156 181.542 33.864 181.19 33.648C180.846 33.432 180.458 33.324 180.026 33.324C179.594 33.324 179.202 33.432 178.85 33.648C178.506 33.864 178.23 34.156 178.022 34.524C177.814 34.892 177.71 35.308 177.71 35.772C177.71 36.236 177.814 36.656 178.022 37.032C178.23 37.408 178.506 37.704 178.85 37.92C179.202 38.136 179.594 38.244 180.026 38.244ZM184.878 39V32.568H185.778V33.624L185.658 33.468C185.81 33.164 186.038 32.924 186.342 32.748C186.654 32.572 187.03 32.484 187.47 32.484H187.878V33.384H187.314C186.85 33.384 186.478 33.528 186.198 33.816C185.918 34.104 185.778 34.512 185.778 35.04V39H184.878ZM191.86 39.144C191.26 39.144 190.716 39 190.228 38.712C189.748 38.416 189.368 38.012 189.088 37.5C188.808 36.988 188.668 36.408 188.668 35.76C188.668 35.112 188.804 34.54 189.076 34.044C189.348 33.54 189.716 33.144 190.18 32.856C190.652 32.568 191.18 32.424 191.764 32.424C192.228 32.424 192.64 32.512 193 32.688C193.368 32.856 193.68 33.088 193.936 33.384C194.192 33.672 194.388 34 194.524 34.368C194.66 34.728 194.728 35.1 194.728 35.484C194.728 35.564 194.724 35.656 194.716 35.76C194.708 35.856 194.696 35.956 194.68 36.06H189.244V35.22H194.164L193.732 35.58C193.804 35.14 193.752 34.748 193.576 34.404C193.408 34.052 193.164 33.776 192.844 33.576C192.524 33.368 192.164 33.264 191.764 33.264C191.364 33.264 190.992 33.368 190.648 33.576C190.312 33.784 190.048 34.076 189.856 34.452C189.664 34.82 189.588 35.26 189.628 35.772C189.588 36.284 189.668 36.732 189.868 37.116C190.076 37.492 190.356 37.784 190.708 37.992C191.068 38.2 191.452 38.304 191.86 38.304C192.332 38.304 192.728 38.192 193.048 37.968C193.368 37.744 193.628 37.464 193.828 37.128L194.596 37.536C194.468 37.824 194.272 38.092 194.008 38.34C193.744 38.58 193.428 38.776 193.06 38.928C192.7 39.072 192.3 39.144 191.86 39.144Z" fill="#1FB43F"/>
</svg>
