<svg width="64" height="64" viewBox="0 0 64 64" fill="none" xmlns="http://www.w3.org/2000/svg">
<mask id="mask0_153_982" style="mask-type:alpha" maskUnits="userSpaceOnUse" x="0" y="0" width="64" height="64">
<rect width="64" height="64" fill="#D9D9D9"/>
</mask>
<g mask="url(#mask0_153_982)">
<path d="M12 46.308V12.36H6V9.33398H15.026V43.2827H56V46.308H12ZM15.5707 57.18C14.5476 57.18 13.6924 56.8213 13.0053 56.104C12.3182 55.3867 11.9747 54.5278 11.9747 53.5273C11.9747 52.5264 12.3173 51.6713 13.0027 50.962C13.6884 50.2527 14.5482 49.898 15.582 49.898C16.602 49.898 17.4693 50.2567 18.184 50.974C18.8991 51.6913 19.2567 52.5502 19.2567 53.5507C19.2567 54.5515 18.898 55.4067 18.1807 56.116C17.4638 56.8253 16.5938 57.18 15.5707 57.18ZM20.1793 38.1287V25.1547H33.154V38.1287H20.1793ZM23.2053 35.1033H30.128V28.18H23.2053V35.1033ZM38.846 38.1287V25.1547H51.8207V38.1287H38.846ZM41.872 35.1033H48.7947V28.18H41.872V35.1033ZM52.3193 57.18C51.3202 57.18 50.4702 56.8213 49.7693 56.104C49.0684 55.3867 48.718 54.5278 48.718 53.5273C48.718 52.5264 49.0724 51.6713 49.7813 50.962C50.4898 50.2527 51.3436 49.898 52.3427 49.898C53.3418 49.898 54.2011 50.2567 54.9207 50.974C55.6402 51.6913 56 52.5502 56 53.5507C56 54.5515 55.6362 55.4067 54.9087 56.116C54.1811 56.8253 53.318 57.18 52.3193 57.18Z" fill="#1FB43F"/>
</g>
</svg>
